<svg width="80" height="80" viewBox="0 0 80 80" fill="none" xmlns="http://www.w3.org/2000/svg">
<g clip-path="url(#clip0_34_170)">
<path d="M68.3192 76.9614C67.3003 76.9614 66.3516 75.9732 66.0172 74.4167C65.6012 72.4789 66.2946 70.3935 67.5669 69.7595C72.1759 67.4609 75.1535 61.3051 75.1535 54.0762C75.1535 44.9212 70.2659 37.4723 64.258 37.4723C63.8407 37.4723 63.3917 37.5224 62.8452 37.6305L60.4761 38.0986L60.136 34.4942C58.6801 19.0387 49.8446 7.38328 39.5836 7.38328C31.1009 7.38328 23.549 15.1217 20.3466 27.0984L19.7437 29.3517L18.1478 29.3961C10.8138 29.6017 4.8471 38.8571 4.8471 50.027C4.8471 58.1814 7.95396 65.6177 12.7618 68.9711C13.9783 69.8203 14.5134 72.0109 13.9562 73.8647C13.3989 75.7185 11.962 76.532 10.7454 75.6857C4.21763 71.1327 0 61.0619 0 50.027C0 35.6677 7.26052 23.6389 16.4829 22.1614C20.7322 8.62236 29.638 0 39.583 0C51.4861 0 61.8332 12.7169 64.5164 30.0928C73.0776 30.3042 80 40.982 80 54.0772C80 64.396 75.6089 73.5182 69.0741 76.7771C68.8239 76.9016 68.5693 76.9614 68.3192 76.9614Z" fill="#0071CE"/>
<path d="M31.2551 78.5587C31.2545 78.5578 31.2545 78.5577 31.2539 78.5577C31.2532 78.5577 31.2526 78.5568 31.252 78.5568H31.2513L31.2507 78.5558L31.2501 78.5549C31.2501 78.5549 31.2494 78.5549 31.2494 78.5539H31.2488L31.2482 78.5529C31.2488 78.552 31.2475 78.552 31.2475 78.552L31.2469 78.551H31.2463L31.2456 78.55C31.2463 78.551 31.245 78.5491 31.245 78.5491C31.245 78.5491 31.2437 78.5481 31.2431 78.5481L31.2425 78.5471L31.2418 78.5462L31.2412 78.5452C31.2393 78.5443 31.2399 78.5443 31.2393 78.5443C31.2387 78.5452 31.2387 78.5433 31.238 78.5433L31.2374 78.5423C31.2374 78.5423 31.2368 78.5414 31.2362 78.5414L31.2355 78.5404C31.2349 78.5394 31.2336 78.5394 31.233 78.5394C31.2324 78.5394 31.2311 78.5385 31.2305 78.5385C31.2298 78.5375 31.2298 78.5375 31.2292 78.5375H31.2286C31.2279 78.5365 31.2273 78.5366 31.2267 78.5366C31.226 78.5356 31.2248 78.5356 31.2248 78.5356H31.2241L31.2229 78.5346C31.2222 78.5346 31.2222 78.5337 31.2222 78.5337H31.2216C31.1843 78.5134 31.1445 78.5009 31.1027 78.498H31.1014H31.1002H31.0989C31.0989 78.498 31.0989 78.498 31.0983 78.498H31.0977H31.097L31.0964 78.497H31.0951H31.0939H31.0932H31.0926H31.092H31.0907H31.0901H31.0907H31.0901H31.0894H31.0888H31.0882H31.0875H31.0869H31.0863H31.0856C30.0384 78.497 29.1814 77.198 29.1751 75.606V43.163H30.7985H30.8067C31.0553 43.1793 31.2248 42.8883 31.2248 42.5385C31.2248 42.2774 31.1198 42.0538 30.9705 41.9603L23.1419 33.7267C23.0015 33.5792 22.8162 33.5792 22.6758 33.7267L14.7859 42.0249C14.6379 42.18 14.574 42.4643 14.6271 42.7255C14.6809 42.9866 14.839 43.1639 15.0186 43.1639H16.6502L16.6515 75.6147C16.6597 77.8581 17.8423 79.6891 19.3468 79.7469C19.3639 79.7498 19.3803 79.7517 19.3974 79.7517H31.085H31.092C31.1995 79.7488 31.2969 79.6833 31.369 79.5783C31.369 79.5783 31.369 79.5783 31.3696 79.5773C31.3709 79.5754 31.3721 79.5735 31.3728 79.5725C31.3734 79.5715 31.374 79.5715 31.3746 79.5696L31.3753 79.5686L31.3759 79.5677L31.3765 79.5667L31.3772 79.5658L31.3778 79.5648L31.3784 79.5638C31.3797 79.5629 31.3791 79.5629 31.3797 79.5619C31.3797 79.5619 31.3797 79.5619 31.3803 79.5609L31.381 79.56C31.381 79.56 31.381 79.56 31.3816 79.559C31.4524 79.4472 31.4967 79.2959 31.4973 79.1282V79.1263V79.1254V79.1244V79.1234V79.1225V79.1215V79.1205V79.1186C31.4942 78.8719 31.3962 78.656 31.2551 78.5587Z" fill="#DC8327"/>
<path d="M48.1639 78.5587C48.1639 78.5587 48.1633 78.5578 48.1626 78.5578C48.162 78.5578 48.1614 78.5568 48.1607 78.5568H48.1601L48.1595 78.5558L48.1588 78.5549H48.1582L48.1576 78.5539L48.1569 78.5529C48.1576 78.552 48.1563 78.552 48.1557 78.552L48.155 78.551H48.1544C48.1538 78.551 48.1538 78.55 48.1538 78.55C48.1525 78.551 48.1525 78.5491 48.1525 78.5491L48.1512 78.5481L48.1506 78.5472H48.15L48.1494 78.5462L48.1487 78.5452C48.1481 78.5443 48.1475 78.5443 48.1475 78.5443C48.1468 78.5452 48.1468 78.5433 48.1456 78.5433L48.1449 78.5423L48.1443 78.5414C48.1443 78.5414 48.1437 78.5414 48.143 78.5404C48.1424 78.5394 48.1411 78.5394 48.1405 78.5394C48.1399 78.5394 48.1386 78.5385 48.138 78.5385C48.1373 78.5375 48.1373 78.5375 48.1367 78.5375C48.1361 78.5375 48.1361 78.5375 48.1354 78.5366C48.1354 78.5366 48.1348 78.5366 48.1342 78.5356C48.1323 78.5346 48.1335 78.5346 48.1329 78.5346C48.131 78.5346 48.1323 78.5346 48.1316 78.5337C48.1316 78.5337 48.131 78.5327 48.1304 78.5327L48.1297 78.5317H48.1291C48.0918 78.5115 48.052 78.499 48.0102 78.4961H48.009H48.0083H48.0071H48.0064H48.0058H48.0052L48.0045 78.4951H48.0033H48.002H48.0014H48.0007H48.0001H47.9988H47.9976H47.9969H47.9963H47.9957H47.995H47.9944H47.9938H47.9931H47.9925H47.9919C46.9452 78.4951 46.0883 77.1961 46.082 75.6041V50.4281H47.713C47.7187 50.4271 47.7231 50.4271 47.7294 50.4281C47.9558 50.4281 48.1392 50.1486 48.1392 49.8036C48.1392 49.5425 48.0343 49.3189 47.885 49.2254L40.0557 40.9918C39.9154 40.8444 39.7301 40.8444 39.5897 40.9918L31.7029 49.289C31.5549 49.4442 31.491 49.7285 31.5441 49.9896C31.5979 50.2508 31.756 50.4281 31.9356 50.4281H33.5596L33.5609 75.6137C33.5678 77.8581 34.7524 79.6901 36.2575 79.7469C36.2739 79.7498 36.2904 79.7508 36.3068 79.7508H47.9944H48.0014C48.1089 79.7479 48.2063 79.6824 48.2784 79.5773C48.2784 79.5773 48.2784 79.5773 48.279 79.5764C48.2803 79.5744 48.2828 79.5725 48.2822 79.5715C48.2828 79.5706 48.2834 79.5706 48.2841 79.5686L48.2847 79.5677L48.2853 79.5667L48.2859 79.5658C48.2859 79.5658 48.2866 79.5658 48.2866 79.5648L48.2872 79.5638C48.2878 79.5638 48.2878 79.5629 48.2878 79.5629C48.2897 79.5619 48.2891 79.5619 48.2891 79.5609C48.2891 79.5609 48.2891 79.5609 48.2897 79.56C48.2897 79.56 48.2897 79.56 48.2904 79.559C48.2904 79.559 48.2904 79.559 48.291 79.558C48.3618 79.4463 48.4061 79.295 48.4067 79.1273V79.1254V79.1244V79.1234V79.1225V79.1215V79.1205V79.1196V79.1177C48.4029 78.8719 48.3049 78.6561 48.1639 78.5587Z" fill="#F4B21B"/>
<path d="M65.117 78.5587L65.1158 78.5577C65.1151 78.5577 65.1145 78.5568 65.1139 78.5568H65.1133L65.1126 78.5558L65.112 78.5548C65.1114 78.5548 65.1114 78.5548 65.1114 78.5539H65.1107L65.1101 78.5529L65.1095 78.5519C65.1095 78.5519 65.1088 78.5519 65.1088 78.551H65.1082L65.1076 78.55C65.1069 78.551 65.1069 78.549 65.1063 78.549C65.1069 78.5481 65.1057 78.5481 65.105 78.5481L65.1044 78.5471H65.1038L65.1031 78.5462L65.1025 78.5452C65.1006 78.5442 65.1012 78.5442 65.1012 78.5442C65.1006 78.5452 65.1006 78.5433 65.0993 78.5433L65.0987 78.5423C65.0993 78.5413 65.0981 78.5413 65.0974 78.5413C65.0974 78.5413 65.0968 78.5413 65.0968 78.5404C65.0962 78.5394 65.0949 78.5394 65.0943 78.5394C65.0936 78.5394 65.0924 78.5384 65.0917 78.5384L65.0905 78.5375C65.0905 78.5375 65.0899 78.5375 65.0892 78.5365L65.088 78.5356C65.0861 78.5346 65.0861 78.5346 65.0867 78.5346C65.0848 78.5346 65.0848 78.5346 65.0854 78.5336C65.0848 78.5336 65.0848 78.5327 65.0848 78.5327C65.0842 78.5327 65.0835 78.5317 65.0835 78.5317H65.0829C65.0456 78.5115 65.0057 78.4989 64.964 78.496H64.9634H64.9621H64.9602H64.9596H64.9589H64.9583C64.9577 78.4951 64.9577 78.4951 64.957 78.4951H64.9558H64.9545H64.9539H64.9532H64.9526H64.9514H64.9501C64.9501 78.4951 64.9501 78.4951 64.9495 78.4951H64.9488H64.9482H64.9476H64.9469H64.9463H64.9457H64.9482H64.9476C63.9009 78.4951 63.044 77.196 63.0377 75.6041V57.6903H64.6649H64.6731C64.9039 57.6816 65.0911 57.4157 65.0911 57.0659C65.0911 56.8047 64.9861 56.5811 64.8369 56.4876L57.0076 48.254C56.8679 48.1066 56.6819 48.1066 56.5416 48.254L48.6516 56.5513C48.5036 56.7064 48.4397 56.9907 48.4929 57.2518C48.5466 57.513 48.7047 57.6903 48.8843 57.6903H50.5115L50.5128 75.6137C50.521 77.8581 51.7049 79.691 53.2094 79.7469C53.2258 79.7498 53.2423 79.7508 53.2587 79.7508H64.9463H64.9532C65.0608 79.7479 65.1581 79.6823 65.2302 79.5773L65.2309 79.5763C65.2321 79.5744 65.234 79.5725 65.234 79.5715C65.2347 79.5705 65.2353 79.5705 65.2359 79.5686L65.2366 79.5677L65.2372 79.5667L65.2378 79.5657L65.2385 79.5648L65.2391 79.5638L65.2397 79.5628C65.2416 79.5619 65.2404 79.5619 65.241 79.5609C65.241 79.5609 65.241 79.5609 65.2416 79.5599L65.2423 79.559C65.2423 79.559 65.2423 79.559 65.2429 79.558C65.3137 79.4462 65.358 79.2949 65.3586 79.1273V79.1253V79.1244V79.1234V79.1224V79.1215V79.1205V79.1195V79.1176C65.3561 78.8719 65.2574 78.656 65.117 78.5587Z" fill="#F2D864"/>
</g>
<defs>
<clipPath id="clip0_34_170">
<rect width="80" height="80" fill="white"/>
</clipPath>
</defs>
</svg>
