<svg width="80" height="80" viewBox="0 0 80 80" fill="none" xmlns="http://www.w3.org/2000/svg">
<path fill-rule="evenodd" clip-rule="evenodd" d="M51.7519 21.3938C50.1244 16.3263 47.5138 11.8413 43.835 7.98189C42.905 7.00564 41.8713 6.11126 41.2225 4.89689C40.8125 4.12814 40.4219 3.34876 40.0225 2.57501L39.7688 1.93689L39.6981 2.18814C39.665 3.45064 38.95 4.30626 38.06 5.10564C37.0575 6.00439 36.125 6.98064 35.1625 7.92377L32.2025 11.8169L29.8094 16.2181L28.2088 20.54L28.1606 20.6069C27.28 23.5 26.8456 26.475 26.6325 29.4788C26.5519 30.6081 26.6444 31.7531 26.7075 32.8881C26.7981 34.5106 27.08 36.105 27.5025 37.6756C29.0381 43.3794 32.155 48.11 36.4169 52.13C37.2081 52.8769 38.0638 53.5563 38.8894 54.2663L39.255 55.5213L39.595 57.4688L39.7575 59.5019C39.7556 59.9144 39.7388 60.3288 39.7631 60.74C39.77 60.8456 39.9075 60.9431 39.985 61.0444L40.675 61.2869L41.3931 61.5663L41.27 59.7594L41.2644 57.9794L41.5125 55.2681L41.6925 54.6781L42.2081 53.765C42.8444 53.2538 43.5263 52.7888 44.1056 52.2194C45.1538 51.19 46.2 50.1463 47.1381 49.0181C48.355 47.555 49.4025 45.9581 50.2438 44.2456C50.8056 43.1 51.3356 41.9313 51.7738 40.7344C52.16 39.6794 52.3994 38.57 52.7038 37.4844L52.7838 37.25C53.4119 34.32 53.5175 31.36 53.2869 28.3813C53.1013 25.9806 52.5369 23.6638 51.7519 21.3938ZM39.3144 52.8156C39.4106 52.3338 39.53 51.8544 39.6169 51.3706C39.53 51.8544 39.4113 52.3338 39.3144 52.8156ZM41.45 53.1481L41.0463 52.2638L41.45 53.1481L42.0431 53.655L41.45 53.1481ZM66.5463 64.3525C66.03 63.3631 65.2725 62.6119 64.2713 62.1188C63.4325 61.7063 62.5306 61.525 61.6031 61.4988C60.9081 61.4788 60.2106 61.5144 59.5144 61.5231C58.8963 61.5306 58.2775 61.5413 57.6594 61.5356C56.9325 61.5281 56.2056 61.5063 55.4788 61.4856C55.3581 61.4819 55.2725 61.5063 55.2163 61.6288C55.1281 61.8194 55.0238 62.0031 54.9156 62.2119L55.0369 62.2506C55.3975 62.3144 55.76 62.3688 56.1188 62.4406C56.58 62.5325 56.7875 62.7975 56.8088 63.1863C56.84 63.74 56.8525 64.295 56.8506 64.85C56.8413 67.0463 56.8256 69.2425 56.8094 71.4381C56.8081 71.5831 56.8056 71.7344 56.7663 71.8706C56.7206 72.0281 56.6713 72.2319 56.5538 72.3094C56.3506 72.4444 56.0988 72.5356 55.8569 72.575C55.5063 72.6325 55.4475 72.6481 55.3381 72.9931L55.2906 73.1656C55.2381 73.3538 55.2663 73.3906 55.4625 73.3925C56.5888 73.405 57.7144 73.4294 58.84 73.4256C59.8669 73.4219 60.8938 73.4844 61.9169 73.2913C62.8838 73.1094 63.7863 72.7906 64.61 72.2513C65.6788 71.5506 66.4475 70.6144 66.8531 69.3925C67.1806 68.4056 67.2538 67.3988 67.1425 66.3669C67.0669 65.655 66.8756 64.9844 66.5463 64.3525ZM64.5731 70.3906C63.9706 71.5119 63.0719 72.2606 61.7875 72.4581C60.9831 72.5813 60.1775 72.5456 59.4106 72.2413C58.925 72.0488 58.7444 71.6294 58.7294 71.1338C58.715 70.6481 58.7094 70.1619 58.7088 69.6763C58.7063 67.9675 58.7063 66.2588 58.7088 64.5506C58.71 64.0125 58.7194 63.4731 58.7281 62.9344C58.7344 62.5556 58.8138 62.4288 59.1831 62.3981C60.8056 62.2619 62.3538 62.4369 63.6394 63.5788C64.4344 64.285 64.8869 65.1856 65.075 66.22C65.1531 66.6513 65.1769 67.0925 65.2256 67.53C65.1863 68.5288 65.0513 69.5006 64.5731 70.3906ZM78.1913 68.54C77.8713 67.7613 77.265 67.2731 76.5031 66.9606C76.2431 66.8538 75.975 66.7656 75.6944 66.6619L75.7925 66.5994C76.0956 66.405 76.4331 66.2481 76.6944 66.0088C77.3294 65.4269 77.5931 64.695 77.4694 63.8256C77.3519 62.9988 76.9394 62.3919 76.2025 61.9981C75.5338 61.6419 74.8125 61.5119 74.0663 61.5125C72.775 61.5138 71.4831 61.5331 70.1919 61.5356C69.7469 61.5363 69.3019 61.5031 68.8569 61.4969C68.7706 61.4956 68.6425 61.5175 68.6056 61.575C68.5038 61.7313 68.4363 61.9113 68.3638 62.085C68.3219 62.1863 68.3631 62.2419 68.4788 62.2569C68.7894 62.2994 69.0994 62.3525 69.4106 62.3988C69.8406 62.4631 70.0488 62.6869 70.075 63.12L70.0806 63.3769C70.0813 64.7238 70.0856 66.0706 70.08 67.4175C70.0731 68.7619 70.0581 70.1075 70.0419 71.4525C70.04 71.6219 70.0169 71.7919 69.9925 71.96C69.9556 72.2138 69.82 72.3888 69.56 72.4438L68.8244 72.5888C68.7375 72.6063 68.6119 72.6038 68.5763 72.6575C68.4413 72.8594 68.3325 73.08 68.3475 73.3463L68.4231 73.3669L70.8938 73.4275L71.3894 73.4256C72.2444 73.4156 73.1006 73.4325 73.9544 73.3888C74.8788 73.3425 75.7469 73.0681 76.5494 72.5963C77.4038 72.0931 78.0613 71.43 78.295 70.4325C78.445 69.7956 78.4456 69.155 78.1913 68.54ZM71.9144 62.8019C71.9181 62.5313 72.0375 62.4138 72.3063 62.4069C72.9681 62.3888 73.6256 62.3925 74.2644 62.6206C75.0906 62.9156 75.5988 63.6281 75.5894 64.4988C75.585 64.8331 75.59 65.1644 75.4669 65.4856C75.2238 66.1181 74.7575 66.4519 74.0963 66.5169C73.7513 66.5519 73.4031 66.5556 73.0956 66.5719L72.0694 66.5269C71.9331 66.5219 71.8738 66.4619 71.8744 66.3219L71.9144 62.8019ZM76.1681 71.2356C75.8375 71.955 75.235 72.3331 74.4806 72.4644C73.8775 72.5694 73.2694 72.5388 72.6731 72.385C72.2319 72.2719 72.0519 71.9175 71.9638 71.5244C71.9044 71.2613 71.9144 70.9481 71.9094 70.6744C71.9013 70.2519 71.9075 69.375 71.9075 69.375H71.8988C71.8988 68.75 71.9006 68.2088 71.8969 67.6094C71.8963 67.48 71.9181 67.4156 72.0763 67.4206C72.6375 67.4375 73.2006 67.4469 73.7619 67.4688C74.2638 67.4881 74.7338 67.6369 75.1756 67.875C75.8481 68.2375 76.2531 68.7925 76.3644 69.555C76.4494 70.1331 76.4131 70.7019 76.1681 71.2356ZM14.5513 71.9094L14.5631 68.5113C14.565 68 14.5 67.4988 14.3325 67.0138C13.8706 65.6781 12.5969 65.07 11.2706 65.5494C10.6675 65.7675 10.1269 66.0981 9.61064 66.4731C9.31001 66.6919 9.31001 66.6919 9.09251 66.38C8.47689 65.4975 7.59751 65.1956 6.57376 65.5213C5.91189 65.7313 5.33314 66.0906 4.78501 66.5081C4.73376 66.5469 4.63064 66.59 4.60001 66.5669C4.54876 66.5288 4.51314 66.4381 4.51439 66.37L4.55189 65.7663C4.55501 65.6394 4.53064 65.5119 4.51814 65.3788C4.27064 65.4644 4.07314 65.55 3.86626 65.6C3.22689 65.7563 2.58314 65.9 1.94001 66.0469C1.78439 66.0825 1.62001 66.1294 1.60501 66.3081C1.58939 66.4838 1.75876 66.5131 1.89001 66.5656C2.16626 66.6769 2.44064 66.795 2.71376 66.915C2.94314 67.0163 3.02876 67.1994 3.02751 67.4456C3.02314 68.4988 3.03001 69.5506 3.02376 70.6038C3.02126 71.0319 3.00126 71.4594 2.98189 71.8875C2.96439 72.2669 2.83501 72.4256 2.46751 72.5213C2.27251 72.5725 2.07439 72.6069 1.87814 72.6531C1.83501 72.6631 1.76126 72.6906 1.76064 72.7119C1.75251 72.8975 1.74251 73.0875 1.77376 73.2681C1.78001 73.3006 1.97626 73.3006 2.08501 73.3131L2.15814 73.3088C2.91564 73.2975 3.67314 73.2856 4.43126 73.2775C4.83314 73.2731 5.23439 73.2769 5.67064 73.2769L5.71751 72.6706C5.46751 72.625 5.24439 72.5906 5.02439 72.5425C4.68126 72.4675 4.53501 72.2856 4.52626 71.9394L4.52001 71.4438C4.51626 70.1581 4.51126 68.8731 4.51126 67.5875C4.51126 67.4006 4.58876 67.2525 4.75314 67.1406C5.10126 66.9056 5.46876 66.7188 5.87564 66.6144C6.73314 66.395 7.47689 66.7 7.80689 67.4294C7.91126 67.6594 7.99314 67.9138 8.01626 68.1638C8.13751 69.4525 8.08501 70.7425 8.01189 72.0313C7.99626 72.3094 7.86564 72.4494 7.59126 72.5175L6.94626 72.6538C6.89439 72.6669 6.81876 72.6319 6.81501 72.675C6.80064 72.8531 6.80876 73.1263 6.80876 73.1263H6.96251L8.92626 73.1906C9.46439 73.1894 10.0031 73.2544 10.5406 73.2681C10.6369 73.27 10.7225 73.2844 10.7281 73.1731C10.7369 72.9969 10.7294 72.8313 10.7213 72.655L10.6188 72.6369L10.0656 72.5125C9.69251 72.4244 9.56376 72.2825 9.56251 71.905C9.55814 70.9744 9.57064 70.0444 9.56251 69.1144C9.55814 68.5825 9.53751 68.0506 9.50314 67.52C9.49376 67.3788 9.51564 67.2863 9.62814 67.2069C9.95939 66.9706 10.3175 66.7888 10.7106 66.685C11.92 66.3663 12.91 67.0294 12.9725 68.2763C13.0338 69.4788 13.0081 70.6856 12.9988 71.8906C12.9956 72.31 12.8569 72.4369 12.4438 72.5494L12.3013 72.5863C11.8781 72.6875 11.8819 72.6875 11.9069 73.1369C11.915 73.2775 11.9538 73.3138 12.1038 73.31C12.9656 73.2906 13.8275 73.2856 14.6894 73.2781C15.0419 73.275 15.3944 73.2781 15.7781 73.2781L15.8563 72.6931C15.5194 72.6038 15.2088 72.5375 14.9088 72.4394C14.6438 72.3494 14.55 72.1894 14.5513 71.9094ZM44.2319 66.7588C44.5869 66.4294 44.5894 65.9944 44.49 65.5113C44.2088 65.8056 43.8938 65.9413 43.5344 65.9669C43.0525 66.0013 42.5794 65.9594 42.1306 65.7675C40.9169 65.2463 39.7219 65.2831 38.5306 65.855C37.5288 66.335 36.9125 67.0831 36.8506 68.2175C36.8113 68.9444 36.9475 69.6325 37.4325 70.2106C37.7231 70.5569 38.0963 70.7813 38.5169 70.9363C38.6981 71.0031 38.7119 71.0894 38.56 71.205C38.4488 71.2906 38.3306 71.3681 38.2119 71.4425C37.9581 71.6019 37.7025 71.7594 37.4456 71.9138C37.295 72.005 37.2438 72.1213 37.2931 72.2994C37.4375 72.8231 37.8094 73.1256 38.2744 73.3463L38.4438 73.4644L38.2956 73.6125C37.84 73.9819 37.3663 74.3306 36.93 74.7225C36.5638 75.0519 36.4456 75.4931 36.5563 75.98C36.7794 76.9519 37.4238 77.5531 38.3381 77.8294C39.9363 78.3131 41.4369 78.0356 42.805 77.0888C43.6163 76.5269 44.1981 75.7956 44.375 74.7894C44.5731 73.6588 43.945 72.6775 42.8206 72.475C42.0769 72.34 41.3156 72.3013 40.5631 72.215C40.2119 72.175 39.8556 72.1513 39.5138 72.0706C39.2231 72.0019 39.0788 71.765 39.1056 71.5338C39.1325 71.3063 39.3744 71.0944 39.6513 71.0725C40.2088 71.0275 40.755 70.9406 41.2688 70.7056C42.63 70.0831 43.2619 68.9931 43.1038 67.5256C43.0831 67.3281 43.0381 67.1331 42.9975 66.9031C43.4331 66.9763 43.8788 67.0869 44.2319 66.7588ZM40.1013 73.6444C40.655 73.6606 41.285 73.695 41.8938 73.8731C42.4294 74.0294 42.87 74.3031 43 74.9013C43.1569 75.6238 42.8094 76.3425 42.11 76.7288C41.455 77.09 40.7438 77.12 40.0225 77.0456C39.405 76.9819 38.8494 76.7681 38.4044 76.3119C37.8181 75.7113 37.815 74.88 38.4019 74.2813C38.9263 73.7463 39.2069 73.6356 40.1013 73.6444ZM41.4869 69.2931C41.1644 70.325 40.2256 70.4675 39.49 70.1375C38.8631 69.8569 38.59 69.3044 38.4469 68.6738C38.3913 68.4313 38.3781 68.1794 38.3456 67.9313C38.3588 67.5756 38.4175 67.2344 38.5706 66.9144C39.04 65.9288 40.1931 65.9875 40.8313 66.4338C41.105 66.625 41.2956 66.885 41.415 67.1931C41.68 67.8831 41.7069 68.5863 41.4869 69.2931ZM35.6306 72.5825C35.4088 72.5469 35.1856 72.5006 34.97 72.435C34.59 72.3188 34.5438 72.2475 34.5394 71.8456C34.5281 70.7256 34.5206 69.6056 34.5081 68.4863C34.5019 67.9825 34.4419 67.4856 34.2875 67.0044C33.8813 65.7356 32.6369 65.0544 31.3919 65.4288C30.7019 65.6369 30.1094 66.0238 29.5575 66.4781L29.3563 66.6325L29.3569 66.4256C29.37 66.1875 29.3956 65.9494 29.3938 65.7113C29.3925 65.5869 29.345 65.4619 29.3219 65.3525C28.8513 65.4944 28.4294 65.6369 27.9988 65.7456C27.5669 65.8544 27.1263 65.9281 26.6894 66.0169C26.4725 66.0606 26.3131 66.1919 26.3169 66.3413C26.3225 66.5519 26.4969 66.5925 26.6494 66.6556C26.9256 66.7688 27.2013 66.8831 27.4744 67.0044C27.6694 67.0913 27.7488 67.2525 27.7469 67.4619C27.7331 68.9175 27.7244 70.3738 27.7031 71.83C27.6969 72.29 27.5806 72.4113 27.1281 72.5125L26.9306 72.5519C26.5119 72.6238 26.5 72.6406 26.5288 73.0825L26.5313 73.1556C26.5263 73.3256 26.6006 73.3806 26.7756 73.3788C27.8881 73.3656 29.0013 73.3594 30.1138 73.3638C30.5906 73.3656 30.6419 73.3281 30.6319 72.8381L30.6094 72.6275C30.3369 72.5819 30.0763 72.5488 29.8213 72.4925C29.5544 72.4331 29.4588 72.3238 29.4338 72.0525C29.4106 71.8044 29.4031 71.5525 29.4006 71.3025C29.3881 70.1581 29.3781 69.0138 29.3725 67.87C29.3713 67.5819 29.4244 67.3144 29.6894 67.1288C30.0913 66.8481 30.5313 66.6856 31.0175 66.6525C32.01 66.5844 32.7644 67.1725 32.8181 68.1619C32.8844 69.3825 32.8644 70.6075 32.88 71.8306C32.8813 71.9219 32.865 72.0138 32.8525 72.1044C32.8288 72.2831 32.7413 72.4175 32.56 72.4638C32.3831 72.51 32.2038 72.5513 32.0231 72.5788C31.7538 72.6188 31.7481 72.6169 31.7275 72.8888L31.7344 73.0719C31.7663 73.3881 31.7669 73.3788 32.0869 73.3756C33.1631 73.3669 34.2388 73.3613 35.3144 73.3625C35.7644 73.3638 35.7963 73.3425 35.8 72.8788L35.7988 72.7688C35.8056 72.65 35.7525 72.6019 35.6306 72.5825ZM50.6631 65.5056C49.535 65.23 48.465 65.435 47.4488 65.9606C46.4613 66.4713 45.8013 67.2606 45.55 68.3506C45.2963 69.4525 45.4175 70.5275 45.9044 71.5506C46.2213 72.215 46.7088 72.7288 47.3725 73.0625C48.9263 73.845 50.8269 73.49 52.0456 72.4431C53.0075 71.6175 53.3606 70.5181 53.3819 69.1575C53.3688 69.0213 53.3556 68.7588 53.3194 68.4988C53.115 67.0175 52.0894 65.8544 50.6631 65.5056ZM51.5175 71.2275C51.2181 72.4063 50.1988 72.93 49.0488 72.525C48.4619 72.3188 48.0231 71.9244 47.7281 71.3913C47.0494 70.1663 46.9188 68.8638 47.305 67.5275C47.5625 66.6375 48.295 66.1506 49.1663 66.2119C49.945 66.2663 50.5438 66.64 50.9831 67.2738C51.4463 67.9425 51.625 68.7031 51.6725 69.5019C51.6806 69.63 51.6738 69.7581 51.6738 69.8869L51.7288 69.8931C51.66 70.3388 51.6275 70.7931 51.5175 71.2275ZM22.29 65.4863C21.1031 65.215 19.9913 65.4831 18.9613 66.0863C18.0706 66.6075 17.495 67.3863 17.2744 68.4038C17.0675 69.3544 17.1519 70.2888 17.4888 71.1994C17.6938 71.7544 18.0044 72.2425 18.46 72.6231C19.4194 73.4238 20.5406 73.6263 21.7338 73.4031C22.7438 73.2138 23.6313 72.765 24.2763 71.9256C24.88 71.1406 25.11 70.2394 25.1338 69.2625C25.0981 68.9531 25.0894 68.6381 25.0238 68.3363C24.6975 66.8294 23.8163 65.8344 22.29 65.4863ZM23.2581 71.2238C22.9688 72.3963 21.9331 72.9331 20.7913 72.5281C20.0581 72.2675 19.5806 71.7306 19.2788 71.0425C18.795 69.9369 18.6963 68.7863 19.0094 67.62C19.2494 66.7281 19.9725 66.0713 21.0794 66.2288C21.7588 66.325 22.2888 66.6719 22.6838 67.2238C23.2175 67.9681 23.3931 68.8206 23.4175 69.7163V69.8994L23.4625 69.9063C23.3969 70.3463 23.3644 70.7938 23.2581 71.2238Z" fill="#4FAA41"/>
</svg>
