<svg width="80" height="80" viewBox="0 0 80 80" fill="none" xmlns="http://www.w3.org/2000/svg">
<g clip-path="url(#clip0_34_147)">
<path d="M36.3993 1.01556C38.5745 -0.114937 41.4076 -0.120043 43.5809 1.01556C54.5145 6.62521 65.4514 12.2261 76.3831 17.8391C78.4392 18.8908 79.8146 20.9685 79.7936 23.1197V56.8695C79.8089 59.1098 78.2977 61.2372 76.1285 62.265C65.2309 67.8437 54.3389 73.4292 43.4431 79.008C41.223 80.1606 38.333 80.0718 36.1822 78.8247C32.9151 77.105 29.6424 75.3938 26.375 73.6758C25.7073 73.3143 24.9547 73.0267 24.4832 72.4389C24.9 71.9288 25.6451 71.8653 26.2506 71.6426C27.6144 71.2488 28.8669 70.6168 30.1198 70.0034C30.4366 69.8065 30.8234 69.882 31.1271 70.0582C33.9208 71.5126 36.6899 73.0094 39.493 74.45C40.091 74.7634 40.6965 74.3473 41.2077 74.0885C51.9016 68.6006 62.6086 63.1333 73.3007 57.6437C73.6968 57.4706 73.9158 57.0888 73.8837 56.6948C73.8912 45.5614 73.8855 34.4261 73.8874 23.2927C73.9327 22.8457 73.6478 22.4346 73.2026 22.2516C62.3427 16.6984 51.4886 11.1367 40.6306 5.58209C40.4425 5.46466 40.2196 5.40165 39.9914 5.40134C39.7631 5.40104 39.54 5.46346 39.3515 5.58039C28.4936 11.1367 17.6413 16.7035 6.78331 22.2564C6.33966 22.4397 6.04191 22.8439 6.09471 23.2927C6.09659 34.4261 6.09471 45.5614 6.09471 56.6965C6.07588 56.8887 6.12239 57.0816 6.22797 57.2491C6.33354 57.4167 6.49312 57.5508 6.68521 57.6335C9.5827 59.1254 12.4839 60.6068 15.3833 62.0936C17.0167 62.8919 19.0222 63.3663 20.8218 62.7546C22.4099 62.2375 23.5231 60.766 23.4928 59.2349C23.5078 48.1665 23.4853 37.0964 23.504 26.0298C23.4644 25.5384 23.9777 25.1325 24.5038 25.1787C25.896 25.1702 27.2901 25.1617 28.6823 25.1821C29.2634 25.1702 29.6633 25.6993 29.5915 26.1943C29.5858 37.3328 29.6065 48.4715 29.5821 59.6099C29.5858 62.5784 28.2427 65.8085 25.2187 67.261C21.4932 69.0134 16.8886 68.6417 13.2082 66.9614C10.022 65.5175 6.98139 63.8133 3.85176 62.2664C1.67693 61.2443 0.173192 59.1084 0.188501 56.8698V23.1197C0.165694 20.9239 1.59569 18.8085 3.71586 17.7722C14.6116 12.1889 25.5055 6.60138 36.3993 1.01556Z" fill="#8CC84B"/>
<path d="M45.9046 24.3943C50.6566 24.1166 55.744 24.2298 60.0202 26.3554C63.3311 27.9844 65.1666 31.4031 65.225 34.743C65.1325 35.1935 64.6139 35.442 64.1403 35.411C62.7615 35.4093 61.3824 35.4281 60.0037 35.4025C59.4188 35.423 59.0789 34.9333 59.0054 34.4638C58.6093 32.8658 57.6495 31.2831 55.993 30.5123C53.4501 29.3563 50.5017 29.4145 47.7288 29.4386C45.7046 29.5362 43.5279 29.6953 41.813 30.7762C40.4964 31.5949 40.0965 33.2476 40.5664 34.5787C41.0094 35.5344 42.2244 35.8428 43.2186 36.1271C48.9455 37.4871 55.0141 37.3517 60.6317 39.1415C62.9574 39.8712 65.2325 41.2896 66.0286 43.5007C67.0699 46.4641 66.6135 50.0062 64.2915 52.3852C62.4085 54.3429 59.6659 55.4085 56.9306 55.9872C53.2917 56.7239 49.5153 56.7427 45.8199 56.4156C42.345 56.0558 38.7289 55.2269 36.0464 53.0771C33.7525 51.2686 32.6322 48.4507 32.7434 45.731C32.7699 45.2717 33.2736 44.9515 33.7582 44.9892C35.1466 44.979 36.535 44.9756 37.9235 44.9909C38.4781 44.9549 38.8892 45.39 38.9177 45.8647C39.1738 47.3872 39.804 48.9852 41.2662 49.8879C44.0881 51.541 47.6289 51.4278 50.86 51.474C53.537 51.3662 56.5419 51.3336 58.7264 49.7271C59.879 48.8107 60.2205 47.2777 59.909 45.9588C59.5716 44.8454 58.2887 44.3265 57.1871 43.9872C51.5336 42.3634 45.3972 42.9526 39.7984 41.1163C37.5255 40.3869 35.3275 39.0079 34.4543 36.8876C33.2358 33.8868 33.7941 30.175 36.3595 27.8763C38.8608 25.5898 42.4716 24.7092 45.9046 24.394V24.3943Z" fill="#8CC84B"/>
</g>
<defs>
<clipPath id="clip0_34_147">
<rect width="80" height="80" fill="white"/>
</clipPath>
</defs>
</svg>
